<?xml version="1.0" encoding="UTF-8"?>
<!DOCTYPE svg PUBLIC "-//W3C//DTD SVG 1.1//EN" "http://www.w3.org/Graphics/SVG/1.1/DTD/svg11.dtd">
<!-- Creator: CorelDRAW X6 -->
<svg xmlns="http://www.w3.org/2000/svg" xml:space="preserve" width="83.7171mm" height="19.3555mm" version="1.1" style="shape-rendering:geometricPrecision; text-rendering:geometricPrecision; image-rendering:optimizeQuality; fill-rule:evenodd; clip-rule:evenodd"
viewBox="0 0 2801 648"
 xmlns:xlink="http://www.w3.org/1999/xlink">
 <defs>
  <style type="text/css">
   <![CDATA[
    .str0 {stroke:#4D4D4D;stroke-width:13.3822}
    .str1 {stroke:#999999;stroke-width:13.3822}
    .str2 {stroke:#E6E6E6;stroke-width:13.3822}
    .fil4 {fill:#999999}
    .fil2 {fill:#B3B3B3}
    .fil1 {fill:#E6E6E6}
    .fil7 {fill:#FDA701}
    .fil6 {fill:white}
    .fil0 {fill:url(#id0)}
    .fil5 {fill:url(#id1)}
    .fil3 {fill:url(#id2)}
   ]]>
  </style>
  <linearGradient id="id0" gradientUnits="userSpaceOnUse" x1="713.819" y1="640.856" x2="713.819" y2="399.435">
   <stop offset="0" style="stop-color:#6D6D6D"/>
   <stop offset="0.490196" style="stop-color:dimgray"/>
   <stop offset="1" style="stop-color:#ADADAD"/>
  </linearGradient>
  <linearGradient id="id1" gradientUnits="userSpaceOnUse" x1="2131.39" y1="567.144" x2="2131.39" y2="60.2198">
   <stop offset="0" style="stop-color:#4D4D4D"/>
   <stop offset="0.180392" style="stop-color:#4D4D4D"/>
   <stop offset="0.25098" style="stop-color:#E6E6E6"/>
   <stop offset="0.34902" style="stop-color:#E6E6E6"/>
   <stop offset="0.45098" style="stop-color:#4D4D4D"/>
   <stop offset="0.580392" style="stop-color:#CCCCCC"/>
   <stop offset="0.670588" style="stop-color:#999999"/>
   <stop offset="0.768627" style="stop-color:#CCCCCC"/>
   <stop offset="0.909804" style="stop-color:#4D4D4D"/>
   <stop offset="1" style="stop-color:#FEFEFE"/>
  </linearGradient>
  <linearGradient id="id2" gradientUnits="userSpaceOnUse" x1="2014.28" y1="31.3177" x2="2240.18" y2="596.046">
   <stop offset="0" style="stop-color:#333333"/>
   <stop offset="0.541176" style="stop-color:#E6E6E6"/>
   <stop offset="1" style="stop-color:#333333"/>
  </linearGradient>
 </defs>
 <g id="Слой_x0020_1">
  <metadata id="CorelCorpID_0Corel-Layer"/>
  <polygon class="fil0 str0" points="48,399 1420,399 1380,641 8,641 "/>
  <path class="fil1 str1" d="M1284 12c43,0 80,20 104,53 24,33 35,79 28,129 -7,51 -32,96 -65,129 -33,33 -76,54 -119,54 -44,0 -81,-21 -105,-54 -24,-33 -35,-78 -28,-129 8,-50 32,-96 65,-129 33,-33 76,-53 120,-53zm-1146 0l-63 365 65 0 30 -179 54 179 73 0 -79 -245 146 -120 -86 0 -88 72 12 -72 -64 0zm332 0l-63 365 65 0 23 -134 109 -111 -41 245 64 0 63 -365 -65 0 -4 24 -109 107 23 -131 -65 0zm342 0l-62 365 65 0 42 -245 93 0 -42 245 64 0 63 -365 -65 0 -12 72 -93 0 12 -72 -65 0zm465 49c30,0 55,15 71,39 16,24 24,57 19,94 -6,37 -23,70 -46,94 -23,25 -52,39 -82,39 -30,0 -56,-14 -72,-39 -16,-24 -24,-57 -18,-94 5,-37 22,-70 45,-94 23,-24 53,-39 83,-39z"/>
  <path class="fil2 str2" d="M1284 25c-42,0 -81,21 -110,50 -33,32 -55,76 -61,121 -6,41 0,85 25,119 22,31 56,48 94,48 42,0 80,-20 110,-49 32,-33 54,-76 61,-122 6,-41 -1,-85 -26,-119 -22,-31 -55,-48 -93,-48zm-7 22c34,0 63,17 82,45 21,31 26,69 21,104 -5,38 -23,74 -49,102 -24,25 -57,43 -92,43 -35,0 -64,-17 -83,-45 -20,-30 -26,-68 -21,-104 6,-37 23,-74 49,-101 25,-26 57,-44 93,-44zm-1128 -22l-58 338 37 0 39 -223 67 223 45 0 -77 -235 124 -103 -43 0 -112 91 15 -91 -37 0zm332 0l-58 338 38 0 22 -126 142 -145 -47 271 38 0 58 -338 -38 0 -3 18 -141 138 27 -156 -38 0zm343 0l-58 338 37 0 42 -244 120 0 -41 244 37 0 58 -338 -37 0 -13 72 -120 0 12 -72 -37 0z"/>
  <path class="fil2" d="M1558 0l209 0 -36 211 184 0 36 -211 209 0 -108 627 -208 0 39 -228 -185 0 -39 228 -209 0 108 -627zm620 211l208 0 -42 248c52,0 103,0 155,0 27,0 48,-21 54,-60 9,-54 19,-108 28,-163 6,-35 0,-52 -38,-52l-361 0 32 -184c136,0 248,0 384,0 107,0 218,85 201,184 -12,72 -25,144 -37,215 -25,146 -149,228 -248,228 -99,0 -414,0 -418,0 -5,0 82,-416 82,-416z"/>
  <path class="fil3" d="M1569 13l-103 601 182 0 39 -228 211 0 -39 228 182 0 103 -601 -182 0 -36 212 -211 0 36 -212 -182 0zm619 212c-13,65 -27,131 -40,197 -9,45 -18,90 -27,135 -3,16 -6,32 -9,48 0,3 -1,6 -1,9 134,0 269,0 403,0 52,0 104,-23 143,-56 50,-41 81,-98 92,-161 12,-72 25,-144 37,-216 2,-14 2,-28 -1,-42 -19,-76 -112,-126 -187,-126 -124,0 -248,0 -373,0l-27 157 345 0c47,0 59,26 51,68 -9,55 -18,109 -28,164 -6,36 -27,71 -67,71 -52,0 -103,0 -155,0l-16 0 43 -248 -183 0z"/>
  <path class="fil4" d="M1597 47l-91 534 114 0 39 -228 279 0 -39 228 114 0 92 -534 -114 0 -37 211 -279 0 36 -211 -114 0zm619 211c-12,57 -24,114 -35,170 -9,45 -18,91 -27,136 -1,5 -2,11 -3,17 121,0 242,0 363,0 44,0 89,-21 122,-49 43,-36 70,-85 80,-140 12,-72 25,-144 37,-216 2,-10 1,-19 -1,-29 -14,-61 -95,-100 -154,-100 -115,0 -230,0 -345,0l-15 90 305 0c68,0 95,44 84,107 -9,55 -18,109 -28,163 -9,53 -43,99 -100,99 -52,0 -103,0 -155,0l-56 0 43 -248 -115 0z"/>
  <path class="fil5" d="M1609 60l-87 507 86 0 40 -228 306 0 -39 228 87 0 87 -507 -87 0 -36 212 -307 0 36 -212 -86 0zm618 212c-11,53 -22,106 -33,159 -9,45 -18,90 -27,135 0,1 0,1 0,1 116,0 231,0 347,0 41,0 83,-19 113,-45 41,-34 67,-81 76,-133 12,-72 24,-144 37,-216 1,-7 1,-15 -1,-23 -13,-55 -88,-90 -141,-90 -111,0 -222,0 -333,0l-11 63 289 0c75,0 110,52 97,123 -9,55 -18,109 -28,164 -10,59 -49,109 -113,109 -52,0 -103,0 -155,0l-72 0 43 -247 -88 0z"/>
  <path class="fil6" d="M1224 522c0,-13 -4,-23 -18,-23 -15,0 -21,10 -25,23l43 0zm72 -52l4 -18 49 -30 -10 48 20 0 -7 34 -20 0 -4 19 0 0 -43 0 0 -1 4 -18 -16 0 7 -34 16 0zm-158 53l1 -1c3,-11 8,-21 14,-30 14,-19 34,-25 57,-25 16,0 31,4 41,17 9,12 13,24 13,38l0 1 -126 0zm-88 -43c11,-8 24,-13 38,-13 10,0 20,2 27,10 8,7 11,16 11,26 0,6 -2,13 -3,19l0 1 -43 0 0 -1c1,-5 3,-10 3,-13 0,-7 -4,-10 -11,-10 -8,0 -14,5 -20,11 -2,3 -5,7 -7,12l0 1 -45 0 0 -1 11 -52 41 0 -2 10zm-290 43l0 -2 21 -99 50 0c14,0 32,1 46,6 13,4 22,13 29,24 8,14 11,30 11,46 0,8 -1,16 -2,24l-1 1 -45 0 1 -1c1,-8 2,-16 2,-25 0,-9 -1,-22 -8,-29 -7,-7 -20,-8 -30,-8l-17 0 -13 62 0 1 -44 0zm-174 0l0 -2 21 -99 44 0 -13 67 57 0 14 -67 45 0 -21 99 0 2 -147 0zm-156 0c0,-1 0,-1 0,-2 3,-12 9,-23 18,-32 14,-16 33,-22 54,-22 17,0 34,4 46,16 11,10 16,24 17,38 0,1 0,1 0,2l-42 0 0 0c0,-1 0,-1 0,-2 0,-5 -2,-10 -5,-14 -4,-5 -10,-6 -16,-6 -11,0 -18,5 -24,14 -1,2 -2,4 -3,6 0,1 0,1 -1,2l-44 0zm-89 -43c11,-8 24,-13 38,-13 10,0 19,2 27,10 7,7 10,16 10,26 0,5 -1,12 -2,18l-1 2 -42 0 0 -2c1,-5 2,-9 2,-12 0,-7 -3,-10 -10,-10 -8,0 -15,5 -20,11 -3,3 -5,7 -7,11 0,0 0,1 -1,2l-44 0 0 -2 11 -51 41 0 -2 10zm-106 -10l42 0 -10 50 -1 3 -43 0 1 -3 11 -50zm9 -48l43 0 -8 40 -43 0 8 -40zm-108 82l35 -34 57 0 -56 50 -1 1 1 2 -83 0 0 -3 21 -98 43 0 -17 82z"/>
  <path class="fil7" d="M1328 523l-6 29c-1,4 -3,12 -3,16 0,3 4,3 7,3 3,0 7,0 11,0l5 0 -7 33 -3 1c-6,1 -12,1 -18,1 -21,0 -39,-7 -39,-30 0,-8 3,-20 5,-27l5 -26 43 0zm-151 28c1,13 5,22 20,22 10,0 17,-6 22,-15l2 -2 39 6 -3 5c-12,26 -32,39 -60,39 -17,0 -33,-5 -45,-17 -12,-13 -16,-28 -16,-45 0,-7 1,-14 2,-21l126 0 0 2c0,7 -1,15 -2,23l-1 3 -84 0zm-132 -28c-4,8 -6,18 -8,26l-11 55 -43 0 17 -81 45 0zm78 0l-2 6 -15 75 -43 0 16 -77c1,-1 1,-2 1,-4l43 0zm-197 39l42 0 -8 42 -43 0 9 -42zm-183 42l17 -81 44 0 -9 44 12 0c12,0 27,-1 38,-7 9,-5 15,-14 19,-24 2,-4 4,-9 5,-13l45 0c-3,16 -10,32 -20,46 -19,28 -54,35 -85,35l-66 0zm-56 -78l-57 0 -17 78 -44 0 17 -81 147 0 -17 81 -45 0 16 -78zm-260 21c0,-8 1,-16 3,-24l44 0c-3,7 -5,15 -5,24 0,6 2,13 6,18 4,4 10,6 16,6 10,0 17,-5 22,-14 7,-10 10,-22 10,-34l42 0c0,1 0,3 0,4 0,22 -6,41 -21,57 -15,15 -33,22 -54,22 -17,0 -35,-4 -47,-17 -11,-11 -16,-26 -16,-42zm-92 -24c-3,8 -6,18 -7,26l-11 55 -43 0 17 -81 44 0zm78 0l-1 6 -15 75 -43 0 16 -77c0,-1 0,-2 1,-4l42 0zm-147 0l-17 81 -42 0 16 -81 43 0zm-94 0l27 81 -43 0 -16 -55 -17 15 -8 40 -43 0 17 -81 83 0z"/>
 </g>
</svg>
